#!OML:ASF E:/inclinewalkrobotboard/Project1/Captureday1/Session1/subject1.ASF
:FULLY-SPECIFIED
:DEGREES
351
root 0 0 0 -1.438454783853295 0.4546503502721557 2.8462993313948792
lowerback 10.18850005050719 -1.5114408104460386 -4.565166494915783
upperback 0.42438245860813484 -2.4443398143123023 1.4466407592150177
thorax -5.096712521398451 -1.087778267632601 4.421226883567111
lowerneck -17.341297390431706 -2.4572184900052134 -2.00256931276446
upperneck 20.25173632371392 -2.7878468784356283 -0.38514583899755883
head 9.308953546334372 -1.4766778392848168 -0.16150579416765276
rclavicle 3.0858616458892775E-15 -9.50191535746273E-16
rhumerus -32.544286439927504 -24.660660231283806 -75.70958390823725
rradius 25.19529180234946
rwrist 3.463848784409529
rhand -18.85710897499216 22.451961406054348
rfingers 7.125020000000019
rthumb 7.445742588778503 -7.483981138487245
lclavicle 2.231547384332731E-15 -5.333407092413866E-16
lhumerus -24.30986428844588 -5.21308748642028 81.67980928446798
lradius 31.764127152699427
lwrist 7.37356630248693
lhand -28.08034002933637 25.506897030592064
lfingers 7.125020000000003
lthumb -1.4580293500835175 55.497248635768514
rfemur -29.29723515072344 8.020396063793758 19.43211446710319
rtibia 14.101311221352642
rfoot -7.7452393906224 -13.646329602536216
rtoes -4.764105917043157
lfemur 13.525338384555884 -3.4357059998252946 -29.529475962898857
ltibia 20.28605953937635
lfoot -15.40841106939258 -2.9485042545972875
ltoes -0.06809646970506478
352
root 0 0 0 -1.4514435825019945 0.49571729685953514 2.1068346739797836
lowerback 10.274176122324823 -1.5644469642557506 -4.021024902945879
upperback 0.40197004615285137 -2.437384682416173 1.662824689929065
thorax -5.165360461775967 -1.0950480498960915 4.341370200488859
lowerneck -17.39289272766574 -2.4181173911820046 -1.9070752773915323
upperneck 20.08762195745469 -2.730863309780029 -0.5052733266459246
head 9.265087748459427 -1.4566590277412061 -0.2103733685150262
rclavicle 2.366235696636483E-15 -1.3630871635870493E-15
rhumerus -32.83236058525359 -25.232009737101563 -75.50942660403459
rradius 24.74305830790575
rwrist 3.863874720810034
rhand -18.82901731319913 22.311156541888582
rfingers 7.125020000000018
rthumb 7.472743155094844 -7.630856233475132
lclavicle 1.410612001071656E-15 -8.509137963124346E-16
lhumerus -24.88450930674854 -4.675531591358837 81.60781437872183
lradius 31.383413759900264
lwrist 7.22071151147313
lhand -27.985175598578266 25.8403065237838
lfingers 7.125020000000005
lthumb -1.3649891079834653 55.8272703466537
rfemur -26.84859514055469 6.91937567825549 19.450086668367145
rtibia 19.049859044358506
rfoot -6.257416982024994 -10.939429559738269
rtoes -2.6478664421658396
lfemur 16.129506005463096 -3.580085645583603 -28.812975894336162
ltibia 22.46995660801999
lfoot -10.774705277344635 -6.458427718324337
ltoes -4.135103041604658
353
root 0 0 0 -1.5092551227980897 0.6187758310735965 -0.01146633845600542
lowerback 10.541310034650866 -1.7366098886362558 -2.4545180847849357
upperback 0.3929881618339297 -2.44017871807387 2.2807825985707275
thorax -5.31907913913058 -1.1289514278904977 4.109070059989469
lowerneck -17.482844297060897 -2.3486786932326464 -1.7018555672988303
upperneck 19.41787636462222 -2.6407431099041707 -0.6699013919439765
head 9.060043659948748 -1.4182627054446169 -0.28480084441368697
rclavicle 2.147878996430122E-15 -1.8496487204856293E-15
rhumerus -33.00750283606499 -25.628779785857592 -75.3799633183696
rradius 24.300389611388148
rwrist 4.264294121122664
rhand -18.760944440111906 22.26211431446717
rfingers 7.125020000000017
rthumb 7.538703765971835 -7.678683449052308
lclavicle 1.0936963767908786E-15 -1.2355911503669903E-15
lhumerus -26.05853338078927 -4.024076806012525 81.8078824393549
lradius 30.922273808782847
lwrist 7.075847465763472
lhand -27.862946142806805 25.766019404449384
lfingers 7.125020000000008
lthumb -1.2467229351564129 55.749173457516534
rfemur -22.457637695609435 4.93372632496607 21.47656154379315
rtibia 30.034056643589498
rfoot -5.828554029129321 -6.5675438699073325
rtoes 3.7429189935837277
lfemur 16.09404424783435 -3.7346416992384923 -25.923674932185005
ltibia 31.7521078308774
lfoot -1.1221237482443875 -11.56996301164842
ltoes -11.655267656763076
354
root 0 0 0 -1.9537765601757573 0.6160348470670094 -2.4257389956560083
lowerback 10.62812039723095 -1.8250658676500722 -0.545399596926474
upperback 0.5915159127791166 -2.2884262673018183 2.9685735634017494
thorax -5.182569939625682 -1.091206435439536 3.74145865937962
lowerneck -17.108778917809666 -2.3290579187416833 -1.5497913740019635
upperneck 20.05369486271625 -2.6349809105938626 -0.7371435237307795
head 9.190085283087544 -1.410347008762014 -0.33688315203986047
rclavicle 2.33647439166982E-15 -2.9076967224399157E-15
rhumerus -32.945567797816054 -25.668487145751822 -75.3757763689459
rradius 24.053245637317097
rwrist 4.539065076098773
rhand -18.659658301423416 22.31211928709988
rfingers 7.125020000000017
rthumb 7.636797905113482 -7.618379020883797
lclavicle 1.002301515348842E-15 -2.389065004484209E-15
lhumerus -28.781144369913005 -2.981136884504887 82.61068201594752
lradius 30.179053550675928
lwrist 6.933140186037317
lhand -27.603451518620112 25.008312620904512
lfingers 7.125020000000016
lthumb -0.9980859498908687 54.98107801932505
rfemur -20.30879351451635 4.883895978812868 23.45482795065082
rtibia 33.24531962000129
rfoot -6.6476023661533254 -5.120715645543868
rtoes 8.3433919813117
lfemur 6.8677734939689286 -2.337916994395904 -19.130857048475796
ltibia 52.906913119401835
lfoot 15.8608482418081 -19.755834619728265
ltoes -9.580780504710507
